<!-- Generated by IcoMoon.io -->
<svg version="1.1" xmlns="http://www.w3.org/2000/svg" width="1024" height="1024" viewBox="0 0 1024 1024">
<title></title>
<g id="icomoon-ignore">
</g>
<path d="M259.875 0h503.974c25.286 3.845 46.981 8.573 68.172 14.51l-3.964-0.948c114.339 36.58 195.674 141.914 195.674 266.245 0 0.679-0.002 1.358-0.007 2.037l0.001-0.104c0 153.323 0 306.646 0 459.693 0.029 1.449 0.045 3.157 0.045 4.869 0 48.529-13.065 94.006-35.87 133.106l0.677-1.257c-47.738 87.205-138.864 145.352-243.572 145.352-1.937 0-3.87-0.020-5.797-0.060l0.288 0.005c-151.109 0-302.495 0-453.604 0-1.317 0.024-2.87 0.038-4.426 0.038-18.517 0-36.584-1.928-54.010-5.595l1.701 0.3c-108.577-20.276-193.803-101.701-219.355-206.503l-0.39-1.894c-4.151-14.945-5.812-30.72-8.579-46.218v-503.697c1.661-10.517 2.768-21.034 5.258-31.55 19.755-109.402 101.596-195.418 207.059-221.017l1.892-0.388c15.222-2.768 29.613-4.151 44.835-6.919zM963.39 511.723c0-74.724 0-149.449 0-223.896 0.009-0.806 0.015-1.757 0.015-2.71 0-18.052-1.92-35.656-5.568-52.618l0.295 1.637c-21.702-100.017-109.454-173.838-214.448-173.838-1.376 0-2.749 0.013-4.119 0.038l0.206-0.003q-227.494 0-454.988 0c-1.484-0.038-3.233-0.059-4.986-0.059-32.249 0-62.8 7.267-90.106 20.253l1.272-0.544c-77.261 34.179-130.193 110.16-130.193 198.503 0 2.506 0.043 5.003 0.127 7.489l-0.010-0.361c0 150.832 0 301.665 0 452.774-0.016 0.988-0.025 2.153-0.025 3.321 0 122.279 99.127 221.405 221.405 221.405 0.009 0 0.017 0 0.026 0h-0.001c152.77 0 304.432 0 457.756 0 1.31 0.029 2.853 0.045 4.4 0.045 73.397 0 138.239-36.63 177.241-92.607l0.465-0.704c25.473-35.38 40.738-79.59 40.738-127.366 0-1.731-0.020-3.458-0.060-5.18l0.005 0.256z"></path>
<path d="M182.106 374.452c4.982-8.856 13.838-9.41 22.417-9.686 27.676 0 58.396 0 87.455 0 11.276 0.34 20.828 7.374 24.842 17.25l0.067 0.185c10.24 22.141 20.48 44.281 31.827 65.868 12.7 24.75 27.148 46.092 43.815 65.472l-0.365-0.434c3.798 4.204 8.175 7.788 13.026 10.653l0.258 0.141c2.082 1.622 4.735 2.601 7.617 2.601 5.736 0 10.567-3.878 12.013-9.156l0.020-0.087c2.795-6.901 4.929-14.934 6.034-23.292l0.055-0.509c1.652-12.673 2.595-27.329 2.595-42.205s-0.943-29.533-2.772-43.913l0.177 1.708c-1.176-17.932-15.127-32.265-32.782-34.029l-0.153-0.012h-4.151c2.348-8.672 9.040-15.365 17.538-17.672l0.175-0.040c7.666-2.934 16.573-5.083 25.831-6.050l0.461-0.039c12.948-1.388 27.968-2.18 43.174-2.18s30.226 0.792 45.023 2.336l-1.849-0.156h2.491c21.864 4.428 27.676 12.731 27.676 35.425 0 35.425 0 71.126 0 106.828 0.283 8.467 2.19 16.417 5.418 23.648l-0.16-0.401c1.396 5.134 6.015 8.847 11.502 8.847 3.728 0 7.055-1.714 9.237-4.397l0.017-0.022c10.17-8.789 19.245-18.302 27.343-28.619l0.333-0.44c22.782-31.376 42.605-67.232 57.783-105.437l1.166-3.328c6.365-15.498 9.686-17.712 27.676-17.712h96.865c0.021 0 0.047 0 0.072 0 6.765 0 13.318 0.909 19.542 2.612l-0.518-0.121c6.047 0.922 10.626 6.086 10.626 12.319 0 1.435-0.243 2.814-0.69 4.097l0.026-0.087c-2.784 15.545-9.013 29.289-17.88 40.913l0.168-0.229c-22.141 31.55-44.835 62.547-67.529 93.821-4.982 6.919-9.963 14.115-14.391 21.587-2.667 3.878-4.259 8.675-4.259 13.845 0 7.378 3.244 13.998 8.383 18.512l0.028 0.024c8.303 8.856 17.159 17.436 25.738 26.015 22.167 19.459 41.662 41.062 58.452 64.72l0.774 1.149c3.891 5.581 7.251 11.977 9.771 18.781l0.192 0.592c0.803 1.829 1.27 3.96 1.27 6.201 0 6.785-4.284 12.569-10.294 14.797l-0.109 0.035c-6.391 3.045-13.838 5.033-21.689 5.526l-0.174 0.009c-27.676 0-55.351 0-85.241 1.661-21.353-0.724-40.31-10.4-53.338-25.372l-0.076-0.090c-13.284-13.561-25.738-27.676-38.746-41.79-3.847-4.344-8.112-8.17-12.776-11.469l-0.231-0.155c-3.576-3.688-8.577-5.977-14.113-5.977-8.839 0-16.314 5.836-18.784 13.864l-0.037 0.139c-3.078 7.729-5.847 16.996-7.831 26.551l-0.195 1.125c-0.202 2.444-0.317 5.291-0.317 8.164s0.115 5.72 0.34 8.535l-0.024-0.371c0.057 0.59 0.089 1.276 0.089 1.97 0 12.075-9.789 21.864-21.864 21.864-0.421 0-0.839-0.012-1.253-0.035l0.058 0.003c-6.834 0.624-14.782 0.98-22.812 0.98-30.157 0-59.141-5.019-86.164-14.267l1.871 0.557c-36.086-14.124-66.646-35.437-91.157-62.355l-0.173-0.192c-32.616-35.916-61.219-76.44-84.512-120.221l-1.56-3.213c-21.034-38.746-40.13-78.322-60.056-117.622-1.661-3.321-3.044-6.919-4.428-10.24z"></path>
</svg>
