<?xml version="1.0" standalone="no"?>
<!DOCTYPE svg PUBLIC "-//W3C//DTD SVG 20010904//EN"
 "http://www.w3.org/TR/2001/REC-SVG-20010904/DTD/svg10.dtd">
<svg version="1.0" xmlns="http://www.w3.org/2000/svg"
 width="1851.000000pt" height="939.000000pt" viewBox="0 0 1851.000000 939.000000"
 preserveAspectRatio="xMidYMid meet">
<metadata>
Created by potrace 1.16, written by Peter Selinger 2001-2019
</metadata>
<g transform="translate(0.000000,939.000000) scale(0.100000,-0.100000)"
fill="#000000" stroke="none">
<path d="M6830 7829 l0 -1560 -243 -307 c-560 -707 -1149 -1485 -1612 -2127
-346 -481 -394 -547 -543 -745 -232 -307 -351 -449 -517 -616 -203 -203 -315
-277 -495 -326 -109 -30 -518 -38 -641 -13 -381 77 -724 443 -811 864 -26 127
-21 328 12 441 97 337 388 647 735 783 216 85 443 95 696 32 214 -54 486 -192
682 -347 24 -19 29 -20 41 -8 11 12 483 613 1169 1487 l48 62 -192 96 c-1176
589 -2209 761 -3084 514 -709 -201 -1306 -708 -1685 -1431 -426 -816 -502
-1652 -224 -2476 228 -677 676 -1272 1239 -1647 453 -302 934 -460 1518 -497
645 -41 1258 137 1859 540 278 187 495 370 765 645 370 378 718 837 982 1294
l42 73 159 0 160 0 0 -1280 0 -1280 2213 0 2214 0 6 1352 c4 744 10 1719 14
2166 l6 812 379 0 c353 0 378 -1 378 -17 0 -10 -9 -72 -20 -138 -80 -484 -95
-1039 -40 -1467 94 -732 370 -1338 820 -1802 490 -505 1117 -798 1895 -888
234 -27 666 -14 935 28 913 143 1732 638 2249 1359 375 522 571 1115 571 1730
0 473 -109 905 -346 1375 -464 920 -1296 1519 -2351 1692 l-138 23 -2222 2
-2223 3 0 39 c0 66 29 207 60 292 98 270 345 485 680 593 215 70 124 66 1535
66 l1275 0 0 1005 0 1005 -1573 0 c-1009 0 -1621 -4 -1708 -11 -506 -39 -946
-247 -1324 -625 -404 -404 -725 -995 -945 -1744 l-49 -165 0 1353 -1 1352
-1175 0 -1175 0 0 -1561z m8438 -3559 c626 -66 1075 -629 993 -1244 -63 -469
-429 -853 -898 -942 -130 -24 -355 -15 -482 20 -243 68 -471 226 -614 427 -59
84 -139 251 -166 349 -84 300 -30 634 144 895 202 304 529 486 905 503 14 1
67 -3 118 -8z"/>
</g>
</svg>
