<svg 
 xmlns="http://www.w3.org/2000/svg"
 xmlns:xlink="http://www.w3.org/1999/xlink"
 width="33px" height="33px">
<path fill-rule="evenodd"  stroke="rgb(176, 206, 33)" stroke-width="2px" stroke-linecap="butt" stroke-linejoin="miter" fill="none"
 d="M9.793,3.592 L12.514,6.313 C13.506,7.305 13.506,8.913 12.514,9.906 L10.929,11.490 C9.891,12.529 9.891,14.212 10.929,15.251 L16.639,20.961 C17.677,21.999 19.361,21.999 20.400,20.961 L21.984,19.376 C22.976,18.384 24.585,18.384 25.577,19.376 L28.298,22.96 C29.290,23.89 29.290,24.697 28.298,25.690 L25.881,28.106 C23.559,30.429 19.793,30.429 17.471,28.106 L3.784,14.419 C1.461,12.96 1.461,8.331 3.784,6.8 L6.200,3.592 C7.192,2.600 8.801,2.600 9.793,3.592 Z"/>
</svg>